<svg width="26" height="16" viewBox="0 0 26 16" fill="none" xmlns="http://www.w3.org/2000/svg">
    <path d="M1.18746 1.29385C1.87494 1.65634 11.4247 6.86248 11.781 7.04998C12.1372 7.23747 12.4997 7.32497 13.0622 7.32497C13.6247 7.32497 13.9872 7.23747 14.3434 7.04998C14.6997 6.86248 24.2495 1.65634 24.937 1.29385C25.1932 1.1626 25.6245 0.925103 25.7182 0.656359C25.8807 0.181368 25.7057 0.00012207 25.012 0.00012207H13.0622H1.11246C0.418722 0.00012207 0.243725 0.187618 0.406222 0.656359C0.49997 0.931353 0.931211 1.1626 1.18746 1.29385Z" fill="white"/>
    <path d="M25.4807 1.57507C24.9682 1.83757 20.3683 5.1125 17.3246 7.0812L22.462 12.8623C22.587 12.9873 22.6433 13.1373 22.5745 13.2123C22.4995 13.2811 22.337 13.2436 22.2058 13.1248L16.0434 7.92493C15.1122 8.52492 14.456 8.93741 14.3435 8.99991C13.8622 9.24365 13.5247 9.2749 13.0622 9.2749C12.5997 9.2749 12.2622 9.24365 11.781 8.99991C11.6623 8.93741 11.0123 8.52492 10.081 7.92493L3.91867 13.1248C3.79367 13.2498 3.62493 13.2873 3.54993 13.2123C3.47493 13.1436 3.53118 12.9873 3.65618 12.8623L8.78732 7.0812C5.74363 5.1125 1.09373 1.83757 0.581238 1.57507C0.0312493 1.29383 0 1.62507 0 1.88132C0 2.13756 0 14.6935 0 14.6935C0 15.2748 0.856233 15.9998 1.46872 15.9998H13.0622H24.6557C25.2682 15.9998 25.9995 15.2685 25.9995 14.6935C25.9995 14.6935 25.9995 2.13131 25.9995 1.88132C25.9995 1.61882 26.037 1.29383 25.4807 1.57507Z" fill="white"/>
</svg>
