<svg width="26" height="20" viewBox="0 0 26 20" fill="none" xmlns="http://www.w3.org/2000/svg">
    <path d="M22.0101 1.78101C20.3529 1.02596 18.5759 0.469667 16.7179 0.151056C16.6841 0.144907 16.6503 0.160274 16.6328 0.191008C16.4043 0.594649 16.1511 1.12123 15.9739 1.53512C13.9754 1.23803 11.9873 1.23803 10.0298 1.53512C9.85254 1.11203 9.59019 0.594649 9.36062 0.191008C9.34319 0.161299 9.30939 0.145932 9.27555 0.151056C7.41857 0.468649 5.64152 1.02494 3.98335 1.78101C3.96899 1.78716 3.95669 1.79741 3.94852 1.81072C0.577841 6.81123 -0.345529 11.6888 0.107445 16.506C0.109495 16.5295 0.122817 16.5521 0.141265 16.5664C2.36514 18.1881 4.51935 19.1727 6.63355 19.8253C6.66739 19.8355 6.70324 19.8232 6.72477 19.7956C7.22489 19.1174 7.6707 18.4023 8.05293 17.6503C8.07549 17.6062 8.05396 17.554 8.00785 17.5366C7.30073 17.2702 6.6274 16.9454 5.97971 16.5766C5.92848 16.5469 5.92437 16.4742 5.9715 16.4393C6.1078 16.3379 6.24414 16.2324 6.37428 16.1258C6.39783 16.1064 6.43064 16.1023 6.45833 16.1146C10.7134 18.0437 15.32 18.0437 19.5249 16.1146C19.5525 16.1013 19.5854 16.1054 19.6099 16.1248C19.7401 16.2314 19.8764 16.3379 20.0137 16.4393C20.0609 16.4742 20.0578 16.5469 20.0066 16.5766C19.3589 16.9526 18.6855 17.2702 17.9774 17.5356C17.9313 17.553 17.9108 17.6062 17.9333 17.6503C18.3238 18.4012 18.7696 19.1163 19.2605 19.7945C19.281 19.8232 19.3179 19.8355 19.3517 19.8253C21.4761 19.1727 23.6303 18.1881 25.8542 16.5664C25.8737 16.5521 25.886 16.5305 25.8881 16.507C26.4302 10.9378 24.98 6.10025 22.0439 1.81174C22.0367 1.79741 22.0245 1.78716 22.0101 1.78101ZM8.68836 13.5728C7.40729 13.5728 6.35173 12.4049 6.35173 10.9706C6.35173 9.53636 7.38682 8.36847 8.68836 8.36847C10.0001 8.36847 11.0455 9.54661 11.025 10.9706C11.025 12.4049 9.98986 13.5728 8.68836 13.5728ZM17.3276 13.5728C16.0466 13.5728 14.991 12.4049 14.991 10.9706C14.991 9.53636 16.0261 8.36847 17.3276 8.36847C18.6394 8.36847 19.6847 9.54661 19.6643 10.9706C19.6643 12.4049 18.6394 13.5728 17.3276 13.5728Z" fill="white"/>
</svg>
